<svg xmlns="http://www.w3.org/2000/svg" version="1.1" xmlns:xlink="http://www.w3.org/1999/xlink" xmlns:svgjs="http://svgjs.com/svgjs" width="512" height="512" x="0" y="0" viewBox="0 0 30 30" style="enable-background:new 0 0 512 512" xml:space="preserve"><g><g xmlns="http://www.w3.org/2000/svg" id="_x33_1"><path d="m22.085144 14.3952026c-.4000244-.9400024-1.3200073-1.539978-2.3400269-1.539978h-1.5565796v-1.6928711c0-.5527344-.4472656-1-1-1s-1 .4472656-1 1v1.6928711h-2.3769531v-1.6928711c0-.5527344-.4472656-1-1-1s-1 .4472656-1 1v1.6928711h-1.5664673c-1.0199585 0-1.9400024.5999756-2.3399658 1.5300293l-2.3400268 5.3699951c-.2699585.5999756-.4099731 1.2600098-.4099731 1.9199829v1.9799805c0 1.4100342 1.1499634 2.5599976 2.5599976 2.5599976h14.5599976c1.4099731 0 2.5599976-1.1499634 2.5599976-2.5599976v-1.9799805c0-.6599731-.1400146-1.3200073-.4000244-1.9099731zm-7.0900268 7.7700196c-1.4599609 0-2.6399536-1.1799927-2.6399536-2.6300049 0-1.4599609 1.1799927-2.6400146 2.6399536-2.6400146 1.460022 0 2.6400146 1.1800537 2.6400146 2.6400146 0 1.4500122-1.1799926 2.6300049-2.6400146 2.6300049z" fill="#000000" data-original="#000000"></path><path d="m25.2949829 5.4898682c-1.1060181-1.0967408-2.5714111-1.7050782-4.119812-1.7050782l-12.3410645.0092163c-1.5575561-.0092163-3.0230712.5991211-4.119812 1.6958619-1.0968017 1.0968017-1.7050781 2.5621948-1.7050781 4.1290283l-.0092163.5645141c.0092163.774231.6452026 1.4101563 1.4193726 1.4193726h4.3502197c.7741699-.0092163 1.4101563-.6451416 1.4193726-1.4193726l-.0092163-.4170532c0-.9124756.7373657-1.6497803 1.6497803-1.6497803l6.3410034.0092163c.9031982-.0092163 1.640564.7280884 1.640564 1.640564l.0092163.4170532c-.0092163.774231.626709 1.4101563 1.4009399 1.4101563l4.359436.0092163c.7557373-.0092163 1.4101562-.6636353 1.4193115-1.4193726v-.5737304c-.0091553-1.5576172-.6082764-3.013794-1.7050171-4.119812z" fill="#000000" data-original="#000000"></path></g></g></svg>